<?xml version="1.0" encoding="UTF-8" standalone="no"?>
<!-- Created with Inkscape (http://www.inkscape.org/) -->

<svg
   version="1.1"
   id="svg1"
   width="545.06659"
   height="545.20148"
   viewBox="0 0 545.06659 545.20148"
   xmlns="http://www.w3.org/2000/svg"
   xmlns:svg="http://www.w3.org/2000/svg">
  <defs
     id="defs1" />
  <g
     id="g1"
     transform="translate(-1.3820123,-0.85027808)">
    <path
       style="fill:#000000"
       d="m 44.582012,545.70419 c -19.6073,-3.4556 -35.4821496,-17.0458 -41.2831397,-35.3417 -1.82018,-5.7407 -1.91686,-17.6929 -1.91686,-236.97889 0,-216.429722 0.11646,-231.294562 1.85424,-236.685062 5.14016,-15.9445 18.0881997,-28.9813999 33.7001497,-33.93141 5.74069,-1.82016995 17.69296,-1.91684995 236.978938,-1.91684995 219.28597,0 231.23824,0.0967 236.97893,1.91684995 15.61194,4.9500101 28.55994,17.98691 33.70014,33.93141 1.7378,5.3905 1.8542,20.25534 1.8542,236.685062 0,219.28599 -0.097,231.23819 -1.9168,236.97889 -4.8525,15.3044 -17.4911,28.0556 -33.37325,33.6705 -4.91238,1.7368 -19.71448,1.8628 -234.57655,1.9974 -126.13333,0.079 -230.533328,-0.068 -231.999998,-0.3262 z M 120.31535,410.01129 V 307.70568 l -11.55363,-0.36104 c -10.617498,-0.33179 -11.858498,-0.59383 -15.316558,-3.23417 -7.80202,-5.95708 -7.26315,4.43111 -7.26315,-140.01939 V 34.320978 l -20.19204,0.33131 c -22.09209,0.3625 -22.99926,0.60875 -28.27539,7.67538 l -2.19924,2.94557 -0.30418,225.255182 c -0.16731,123.89034 -0.0282,226.80107 0.30911,228.69047 0.76355,4.2769 5.24789,9.7272 9.54219,11.5977 2.48599,1.0828 11.74012,1.4267 39.25288,1.4586 l 36.000008,0.042 z m 136.53332,0 V 307.70568 l -11.55361,-0.36104 c -10.61751,-0.33179 -11.85851,-0.59383 -15.31656,-3.23417 -7.80188,-5.95698 -7.26316,4.42374 -7.26316,-139.95473 V 34.450278 H 205.64868 188.58201 V 164.15574 c 0,144.37847 0.53872,133.99775 -7.26315,139.95473 -3.45806,2.64034 -4.69906,2.90238 -15.31656,3.23417 l -11.55362,0.36104 v 102.30561 102.3056 h 51.2 51.19999 z m 136.53333,0 V 307.70568 l -11.55362,-0.36104 c -10.6175,-0.33179 -11.8585,-0.59383 -15.31655,-3.23417 -7.80188,-5.95698 -7.26316,4.42374 -7.26316,-139.95473 V 34.450278 H 342.182 325.11534 V 164.15574 c 0,144.37847 0.53872,133.99775 -7.26316,139.95473 -3.45805,2.64034 -4.69905,2.90238 -15.31656,3.23417 l -11.55361,0.36104 v 102.30561 102.3056 h 51.19999 51.2 z m 111.59088,99.5731 c 1.61918,-1.2096 3.93362,-3.5248 5.14321,-5.1449 l 2.19924,-2.9457 V 273.3836 45.273378 l -2.19924,-2.94564 c -5.27604,-7.06668 -6.18327,-7.31295 -28.27539,-7.67545 l -20.19204,-0.33131 V 164.09108 c 0,144.4505 0.53886,134.06231 -7.26315,140.01939 -3.45806,2.64034 -4.69906,2.90238 -15.31656,3.23417 l -11.55362,0.36104 v 102.34501 102.345 l 37.25679,-0.3061 c 35.71346,-0.2933 37.37875,-0.3971 40.20076,-2.5052 z"
       id="path1" />
  </g>
</svg>
